<?xml version="1.0" standalone="no"?>
<!DOCTYPE svg PUBLIC "-//W3C//DTD SVG 20010904//EN"
 "http://www.w3.org/TR/2001/REC-SVG-20010904/DTD/svg10.dtd">
<svg version="1.0" xmlns="http://www.w3.org/2000/svg"
 width="700.000000pt" height="700.000000pt" viewBox="0 0 700.000000 700.000000"
 preserveAspectRatio="xMidYMid meet">
<metadata>
Created by potrace 1.14, written by Peter Selinger 2001-2017
</metadata>
<g transform="translate(0.000000,700.000000) scale(0.100000,-0.100000)"
fill="#000000" stroke="none">
<path d="M3285 6915 c-142 -20 -465 -103 -409 -105 43 -1 195 -34 256 -56 139
-50 296 -143 367 -218 40 -42 32 -44 -41 -15 -74 30 -275 86 -378 105 -103 20
-421 22 -520 4 -93 -17 -257 -71 -416 -139 -166 -70 -214 -81 -342 -81 -124 0
-193 17 -316 80 -70 36 -103 47 -110 40 -16 -16 -21 -350 -7 -441 7 -40 30
-126 51 -190 22 -63 40 -121 40 -127 0 -7 -25 -43 -55 -79 -69 -84 -159 -263
-185 -368 -59 -235 -47 -728 26 -1053 33 -146 83 -313 134 -444 22 -56 40
-105 40 -108 0 -4 -31 -7 -70 -6 -78 0 -107 -14 -147 -74 -21 -30 -23 -44 -23
-179 0 -187 17 -426 35 -515 8 -39 31 -104 50 -144 41 -87 185 -307 244 -374
40 -46 145 -108 181 -108 10 0 22 -6 28 -13 6 -7 34 -251 62 -542 30 -312 56
-539 63 -553 7 -12 223 -236 480 -496 l467 -474 350 -87 350 -86 283 66 c444
103 415 93 498 166 39 35 257 253 484 485 393 402 413 423 419 465 3 24 28
269 56 543 28 275 55 505 61 512 5 6 37 22 71 34 83 30 149 95 246 239 134
201 177 308 197 486 12 117 26 444 20 492 -7 60 -36 108 -85 141 -30 20 -43
23 -92 19 -69 -6 -69 -6 -29 95 43 110 99 289 127 407 88 371 106 839 43 1091
-23 94 -89 242 -140 316 -46 67 -141 158 -231 221 -42 30 -79 62 -82 71 -2 9
-7 35 -11 57 -19 110 -106 256 -213 357 -85 80 -141 123 -149 114 -3 -3 4 -38
16 -78 35 -110 40 -297 13 -406 -12 -45 -31 -103 -44 -129 l-22 -48 -7 145
c-7 165 -30 270 -83 384 -145 315 -476 519 -954 591 -146 22 -475 28 -597 10z
m520 -140 c252 -48 508 -181 656 -342 83 -90 182 -244 167 -259 -3 -3 -53 30
-109 73 -172 130 -343 220 -644 338 -198 78 -341 126 -476 160 -120 31 -133
36 -99 47 39 12 422 -1 505 -17z m-830 -350 c54 -8 178 -19 274 -25 388 -23
511 -32 616 -46 230 -31 459 -95 607 -170 37 -19 68 -35 68 -37 0 -1 -204 -2
-453 -2 -380 1 -470 4 -565 18 -244 38 -397 93 -561 201 -56 36 -101 68 -101
71 0 7 5 7 115 -10z m-544 -101 c35 -38 135 -107 207 -143 134 -67 348 -122
617 -158 109 -14 192 -16 515 -13 580 6 705 4 813 -13 54 -8 101 -18 104 -21
15 -14 -130 -151 -287 -270 -342 -259 -847 -472 -1296 -547 -126 -22 -556 -18
-664 5 -131 28 -264 73 -385 130 -126 60 -369 219 -343 224 9 2 26 -1 36 -7
25 -13 232 -65 338 -85 318 -59 794 -42 1144 40 252 59 524 155 723 255 105
52 270 149 264 155 -2 2 -34 -5 -72 -16 -108 -31 -420 -98 -535 -116 -144 -22
-442 -32 -667 -23 -302 12 -554 70 -821 188 -151 66 -394 212 -379 227 3 3 55
-10 116 -30 225 -71 449 -106 682 -106 82 0 149 3 149 8 0 4 -21 18 -47 32
-73 38 -182 153 -221 231 -17 37 -32 69 -32 73 0 13 18 5 41 -20z m2974 -763
c88 -40 167 -147 214 -288 29 -84 52 -213 38 -213 -3 0 -30 35 -60 78 -110
157 -237 246 -388 273 -38 7 -69 14 -69 15 0 2 33 37 73 78 65 67 76 74 112
75 22 0 58 -8 80 -18z m-3608 -378 l61 -68 -102 -105 c-140 -144 -226 -274
-295 -445 -21 -53 -41 -99 -45 -102 -19 -19 10 219 40 332 22 80 92 228 145
306 43 64 116 149 128 149 3 0 34 -30 68 -67z m3116 -92 l97 -96 0 -333 0
-334 44 -56 c25 -31 67 -84 95 -117 l50 -60 1 -111 c0 -109 1 -112 30 -149 17
-21 29 -43 27 -49 -2 -7 -51 -12 -131 -14 l-128 -3 -56 52 c-31 29 -71 58 -89
66 -40 16 -273 17 -565 3 -266 -14 -357 -25 -417 -51 -60 -25 -121 -88 -149
-153 -12 -25 -25 -46 -29 -46 -4 0 -33 10 -63 22 -76 30 -194 30 -270 0 -63
-26 -56 -30 -113 67 -39 66 -107 116 -180 130 -112 22 -807 56 -867 42 -50
-11 -88 -33 -154 -87 l-58 -47 -119 5 c-66 3 -122 8 -126 12 -4 3 10 23 30 44
l37 38 0 115 0 115 90 110 90 109 0 340 c0 187 4 346 9 354 8 12 22 7 78 -26
173 -102 342 -172 556 -228 187 -49 283 -63 464 -71 426 -17 828 62 1178 230
163 78 240 123 385 224 133 94 102 100 253 -47z m250 33 c211 -107 355 -292
409 -525 17 -74 16 -354 -2 -394 l-13 -30 -8 35 c-4 19 -15 73 -24 120 -49
256 -176 517 -355 729 -38 46 -70 85 -70 87 0 8 11 4 63 -22z m-2535 -1406
c-3 -7 -63 -62 -134 -122 -207 -174 -258 -220 -246 -224 6 -2 54 8 107 22 53
14 102 26 109 26 7 0 48 -30 91 -67 l78 -67 146 39 c282 73 302 75 356 34 26
-21 27 -26 22 -78 -20 -202 -227 -439 -424 -484 -110 -26 -163 -29 -250 -13
-177 31 -320 142 -405 312 l-43 87 0 151 c0 146 1 153 28 204 49 94 128 165
201 182 17 5 107 8 199 9 131 1 168 -2 165 -11z m2163 -20 c65 -38 134 -118
160 -186 30 -75 32 -246 5 -337 -45 -154 -146 -275 -287 -344 -196 -97 -413
-74 -593 61 -110 83 -201 223 -228 351 -16 75 -5 106 46 131 l40 19 217 -53
218 -54 48 42 c26 23 65 54 85 68 l38 27 122 -32 c66 -17 123 -29 125 -27 2 2
-93 81 -212 176 -118 95 -215 177 -215 182 0 6 81 8 193 6 188 -3 193 -4 238
-30z m-2847 -64 c12 -4 13 -11 5 -32 -6 -15 -16 -30 -22 -34 -16 -10 -114 -10
-121 0 -2 4 2 22 9 40 13 30 17 32 64 32 27 0 56 -3 65 -6z m3226 -16 c11 -12
20 -30 20 -40 0 -15 -9 -18 -64 -18 -64 0 -64 0 -71 31 -9 38 4 49 57 49 26 0
44 -7 58 -22z m-3785 -87 c92 -42 134 -121 176 -339 25 -129 32 -106 -65 -217
l-49 -56 61 -122 c94 -184 83 -192 -39 -31 -103 137 -117 169 -128 299 -5 61
-12 194 -16 298 -6 207 -9 200 60 168z m4300 -1 c-1 -72 -18 -376 -26 -459
-11 -115 -30 -174 -79 -247 -50 -74 -141 -186 -147 -180 -3 2 23 65 56 139 34
74 61 139 61 144 0 6 -28 41 -63 79 l-64 69 24 127 c37 205 66 265 152 320 48
30 86 34 86 8z m-2078 -84 c57 -27 58 -29 72 -139 26 -188 121 -364 272 -500
71 -65 164 -116 269 -148 97 -30 281 -33 379 -6 296 83 480 304 523 629 12 88
13 92 50 118 42 31 96 55 104 47 3 -3 -11 -128 -30 -279 -20 -150 -41 -316
-47 -368 -13 -116 -13 -117 -199 -320 -78 -84 -146 -164 -151 -177 -4 -12 -13
-105 -19 -205 -6 -101 -13 -198 -16 -216 -4 -25 -30 -59 -106 -137 -55 -58
-106 -105 -112 -105 -11 0 -51 57 -139 196 -52 82 -2 57 -432 215 -137 50
-254 95 -259 99 -5 5 22 41 64 84 81 84 83 78 -30 94 -52 8 -59 6 -128 -31
-59 -32 -87 -41 -141 -45 -79 -5 -158 14 -216 54 -37 25 -44 26 -114 20 -41
-4 -81 -10 -88 -14 -9 -6 8 -28 57 -77 39 -38 70 -73 70 -76 0 -8 -95 -46
-410 -164 -132 -50 -215 -86 -233 -104 -16 -14 -62 -77 -103 -138 -41 -62 -78
-113 -82 -113 -11 0 -222 214 -223 226 -22 401 -25 434 -50 468 -13 18 -85 99
-159 180 -74 81 -140 159 -147 174 -13 33 -109 740 -101 748 8 8 100 -40 120
-63 11 -12 22 -50 28 -99 14 -103 33 -160 88 -269 84 -164 225 -285 399 -343
68 -22 95 -26 208 -26 117 0 138 3 210 28 128 44 201 90 301 190 141 141 210
279 233 465 6 46 16 91 23 99 45 54 178 68 265 28z m-56 -1505 l32 -95 -34
-28 c-40 -34 -42 -34 -85 -7 -22 13 -34 28 -34 43 0 27 48 176 63 194 14 18
20 7 58 -107z m-46 -291 c308 5 455 1 569 -13 71 -9 133 -20 138 -25 5 -5 25
-81 45 -170 l36 -161 -51 -59 c-72 -82 -199 -202 -216 -202 -14 0 -225 215
-254 258 -15 22 -13 25 41 80 32 32 57 60 57 63 0 3 -63 9 -139 13 -166 8
-591 -3 -591 -16 0 -5 23 -33 50 -62 28 -29 50 -57 50 -62 0 -6 -60 -73 -134
-149 l-134 -140 -112 110 c-61 61 -120 124 -130 141 -20 31 -20 31 5 145 24
108 53 218 58 220 1 0 85 9 187 19 128 13 229 17 330 14 80 -3 168 -4 195 -4z"/>
</g>
</svg>
